<?xml version="1.0" standalone="no"?>
<!DOCTYPE svg PUBLIC "-//W3C//DTD SVG 20010904//EN"
 "http://www.w3.org/TR/2001/REC-SVG-20010904/DTD/svg10.dtd">
<svg version="1.0" xmlns="http://www.w3.org/2000/svg"
 width="500.000000pt" height="500.000000pt" viewBox="0 0 500.000000 500.000000"
 preserveAspectRatio="xMidYMid meet">

<g transform="translate(0.000000,500.000000) scale(0.100000,-0.100000)"
fill="#000000" stroke="none">
<path d="M3275 4291 c-208 -37 -407 -109 -626 -227 -317 -171 -515 -341 -623
-537 -31 -57 -44 -93 -90 -258 -34 -118 -172 -369 -322 -585 -35 -50 -68 -102
-73 -115 -17 -47 28 -88 74 -67 26 12 137 169 285 403 l77 123 24 -41 c52 -93
165 -189 315 -268 263 -139 381 -227 431 -322 37 -71 9 -240 -61 -375 -156
-295 -627 -633 -918 -659 -60 -5 -71 -3 -112 21 -52 31 -66 51 -66 98 0 67
109 198 213 256 64 36 78 56 54 79 -15 15 -22 14 -86 -14 -173 -77 -311 -186
-376 -298 -60 -102 -27 -211 80 -265 44 -22 62 -25 147 -23 155 2 330 37 553
110 389 126 709 354 867 616 60 99 81 174 76 271 -5 99 -21 132 -102 210 -86
83 -156 130 -356 241 -305 169 -378 214 -425 267 -57 64 -71 111 -55 191 16
84 39 131 110 226 201 271 545 504 950 645 223 78 437 98 507 48 46 -32 56
-79 38 -159 -19 -81 -36 -114 -96 -186 -54 -65 -68 -99 -49 -122 19 -23 40
-18 95 19 67 46 131 109 167 165 37 60 78 189 78 250 0 95 -76 198 -185 247
-119 55 -329 68 -520 35z"/>
</g>
</svg>
