<svg xmlns="http://www.w3.org/2000/svg" width="500" height="500" viewBox="0 0 500 500" version="1.1"><path d="M 461.487 152.759 C 446.033 158.224, 432.070 171.912, 410.234 203 C 403.074 213.195, 397.989 221.022, 380.494 248.785 L 375.903 256.069 373.317 254.035 C 367.865 249.746, 359.438 252.772, 349.500 262.587 C 341.417 270.570, 326.084 282.327, 316.298 288.046 C 306.603 293.712, 302 293.190, 302 286.426 C 302 279.313, 307.416 269.705, 325.827 244.159 C 330.706 237.389, 334 231.839, 334 230.388 C 334 227.207, 330.019 225.255, 326.242 226.584 C 323.317 227.612, 317.115 235.178, 314.014 241.500 C 312.934 243.700, 306.640 250.893, 300.026 257.484 C 293.412 264.076, 287.992 270.151, 287.982 270.984 C 287.962 272.675, 273.188 283.739, 264.274 288.738 C 254.648 294.137, 250.319 292.737, 251.244 284.525 C 252.187 276.161, 261.054 260.178, 271.433 248.136 C 276.579 242.165, 276.441 240.961, 270.382 238.961 C 266.071 237.538, 267.080 236.890, 245.500 254.958 C 216.420 279.305, 198.250 291.437, 191.796 290.817 C 189.035 290.551, 188.448 290.052, 188.182 287.738 C 187.571 282.422, 192.284 274.771, 203.066 263.577 C 221.970 243.950, 247.070 230.002, 263.716 229.874 C 268.848 229.835, 270.884 230.277, 273.095 231.912 C 276.655 234.544, 277 234.524, 277 231.687 C 277 230.414, 275.629 228.061, 273.952 226.454 C 271.262 223.877, 270.050 223.491, 263.620 223.166 C 254.133 222.687, 246.206 224.740, 233.318 231.013 C 210.389 242.173, 187.221 260.717, 181.438 272.537 C 176.907 281.798, 179.215 289.214, 188.059 293.807 C 191.448 295.567, 193.448 295.972, 196.500 295.518 C 205.114 294.236, 220.636 284.765, 234.826 272.132 C 238.305 269.034, 242.679 265.230, 244.545 263.678 L 247.938 260.856 244.050 269.178 C 234.821 288.932, 236.798 298.784, 249.905 298.347 C 258.948 298.045, 269.373 292.504, 285.629 279.355 L 295.759 271.163 292.744 277.197 C 288.459 285.771, 288.073 290.745, 291.387 294.684 C 292.909 296.493, 295.350 298.031, 297.271 298.391 C 301.365 299.159, 310.833 296.760, 317.037 293.383 C 323.825 289.689, 337.499 279.213, 346.477 270.828 L 354.258 263.561 361.879 263.874 C 366.071 264.046, 369.675 264.357, 369.888 264.565 C 370.312 264.977, 326.927 334.758, 310.323 360.373 C 304.664 369.102, 300.277 376.640, 300.576 377.123 C 301.570 378.731, 306.187 378.028, 312.124 375.364 C 317.177 373.096, 318.613 371.796, 322.383 366.072 C 327.552 358.226, 330.083 353.462, 337.297 338 C 342.056 327.798, 364.771 288.777, 377.233 269.395 L 381.801 262.290 393.651 260.556 C 407.640 258.509, 423.981 255.353, 424.792 254.541 C 425.108 254.225, 424.867 253.467, 424.256 252.856 C 423.449 252.049, 419.362 252.026, 409.323 252.772 C 401.720 253.336, 395.413 253.719, 395.307 253.623 C 395.201 253.527, 400.601 249.349, 407.307 244.340 C 433.327 224.904, 463.148 197.403, 474.071 182.771 C 483.339 170.355, 486.085 159.998, 481.230 155.766 C 476.227 151.403, 468.605 150.242, 461.487 152.759 M 163 155.122 C 127.048 162.615, 99.914 178.714, 98.243 193.541 C 97.558 199.613, 98.395 202.062, 102.589 206.256 C 107.032 210.699, 114.284 214.368, 132 221.137 C 149.860 227.961, 162.118 234.164, 165.361 238.017 C 167.491 240.549, 168 242.182, 168 246.487 C 168 251.192, 167.533 252.412, 164.033 256.839 C 158.428 263.929, 152.282 268.321, 138.500 275.084 C 125.072 281.673, 106.696 288.021, 93.958 290.471 C 76.118 293.902, 56.640 293.451, 48.857 289.426 C 45.446 287.662, 42.800 282.879, 42.800 278.477 C 42.800 266.994, 59.639 250.749, 80.575 242.033 C 87.753 239.045, 91.454 238.103, 103.301 236.251 C 110.781 235.081, 108.926 233.487, 100.225 233.606 C 75.254 233.951, 41.327 254.256, 31.837 274.535 C 22.217 295.091, 33.780 305.109, 65.500 303.699 C 104.143 301.982, 164.150 272.913, 174.902 250.702 C 177.542 245.250, 177.620 238.135, 175.095 233.186 C 172.790 228.669, 165.110 221.312, 158.985 217.755 C 156.518 216.323, 145.819 211.455, 135.210 206.939 C 124.210 202.256, 114.647 197.539, 112.960 195.962 C 107.493 190.856, 109.555 186.288, 120.366 179.554 C 139.024 167.933, 172.065 159.278, 189.470 161.453 C 197.055 162.401, 201.567 166.142, 200.574 170.661 C 199.857 173.926, 195.937 178.583, 189.556 183.751 C 185.425 187.095, 185.296 188.644, 189.230 187.657 C 192.864 186.745, 199.466 180.551, 203.928 173.869 C 207.088 169.137, 208 166.825, 208 163.541 C 208 158.675, 206.203 156.548, 200.316 154.449 C 194.472 152.364, 174.502 152.725, 163 155.122 M 470.655 158.508 C 465.393 160.317, 460.646 163.662, 452.158 171.541 C 436.181 186.374, 407.262 222.143, 392.645 245.151 C 386.217 255.270, 386.226 255.273, 397.749 246.798 C 422.436 228.644, 467.372 183.617, 474.705 169.688 C 477.168 165.009, 477.712 158.487, 475.703 157.716 C 474.989 157.442, 472.718 157.799, 470.655 158.508 M 342.249 200.509 C 329.763 208.853, 328.442 211.001, 334.553 213.018 C 339.572 214.674, 342.200 213.682, 346.412 208.543 C 350.181 203.943, 354.385 195.656, 353.816 193.949 C 353.641 193.423, 348.436 196.375, 342.249 200.509" stroke="none" fill="#e5c688" fill-rule="evenodd"/><path d="M 0 250.002 L 0 500.004 250.250 499.752 L 500.500 499.500 500.752 249.750 L 501.004 0 250.502 0 L 0 0 0 250.002 M 0.492 250.500 C 0.492 388, 0.608 444.101, 0.750 375.170 C 0.892 306.238, 0.892 193.738, 0.750 125.170 C 0.608 56.601, 0.492 113, 0.492 250.500 M 461.487 152.759 C 446.033 158.224, 432.070 171.912, 410.234 203 C 403.074 213.195, 397.989 221.022, 380.494 248.785 L 375.903 256.069 373.317 254.035 C 367.865 249.746, 359.438 252.772, 349.500 262.587 C 341.417 270.570, 326.084 282.327, 316.298 288.046 C 306.603 293.712, 302 293.190, 302 286.426 C 302 279.313, 307.416 269.705, 325.827 244.159 C 330.706 237.389, 334 231.839, 334 230.388 C 334 227.207, 330.019 225.255, 326.242 226.584 C 323.317 227.612, 317.115 235.178, 314.014 241.500 C 312.934 243.700, 306.640 250.893, 300.026 257.484 C 293.412 264.076, 287.992 270.151, 287.982 270.984 C 287.962 272.675, 273.188 283.739, 264.274 288.738 C 254.648 294.137, 250.319 292.737, 251.244 284.525 C 252.187 276.161, 261.054 260.178, 271.433 248.136 C 276.579 242.165, 276.441 240.961, 270.382 238.961 C 266.071 237.538, 267.080 236.890, 245.500 254.958 C 216.420 279.305, 198.250 291.437, 191.796 290.817 C 189.035 290.551, 188.448 290.052, 188.182 287.738 C 187.571 282.422, 192.284 274.771, 203.066 263.577 C 221.970 243.950, 247.070 230.002, 263.716 229.874 C 268.848 229.835, 270.884 230.277, 273.095 231.912 C 276.655 234.544, 277 234.524, 277 231.687 C 277 230.414, 275.629 228.061, 273.952 226.454 C 271.262 223.877, 270.050 223.491, 263.620 223.166 C 254.133 222.687, 246.206 224.740, 233.318 231.013 C 210.389 242.173, 187.221 260.717, 181.438 272.537 C 176.907 281.798, 179.215 289.214, 188.059 293.807 C 191.448 295.567, 193.448 295.972, 196.500 295.518 C 205.114 294.236, 220.636 284.765, 234.826 272.132 C 238.305 269.034, 242.679 265.230, 244.545 263.678 L 247.938 260.856 244.050 269.178 C 234.821 288.932, 236.798 298.784, 249.905 298.347 C 258.948 298.045, 269.373 292.504, 285.629 279.355 L 295.759 271.163 292.744 277.197 C 288.459 285.771, 288.073 290.745, 291.387 294.684 C 292.909 296.493, 295.350 298.031, 297.271 298.391 C 301.365 299.159, 310.833 296.760, 317.037 293.383 C 323.825 289.689, 337.499 279.213, 346.477 270.828 L 354.258 263.561 361.879 263.874 C 366.071 264.046, 369.675 264.357, 369.888 264.565 C 370.312 264.977, 326.927 334.758, 310.323 360.373 C 304.664 369.102, 300.277 376.640, 300.576 377.123 C 301.570 378.731, 306.187 378.028, 312.124 375.364 C 317.177 373.096, 318.613 371.796, 322.383 366.072 C 327.552 358.226, 330.083 353.462, 337.297 338 C 342.056 327.798, 364.771 288.777, 377.233 269.395 L 381.801 262.290 393.651 260.556 C 407.640 258.509, 423.981 255.353, 424.792 254.541 C 425.108 254.225, 424.867 253.467, 424.256 252.856 C 423.449 252.049, 419.362 252.026, 409.323 252.772 C 401.720 253.336, 395.413 253.719, 395.307 253.623 C 395.201 253.527, 400.601 249.349, 407.307 244.340 C 433.327 224.904, 463.148 197.403, 474.071 182.771 C 483.339 170.355, 486.085 159.998, 481.230 155.766 C 476.227 151.403, 468.605 150.242, 461.487 152.759 M 163 155.122 C 127.048 162.615, 99.914 178.714, 98.243 193.541 C 97.558 199.613, 98.395 202.062, 102.589 206.256 C 107.032 210.699, 114.284 214.368, 132 221.137 C 149.860 227.961, 162.118 234.164, 165.361 238.017 C 167.491 240.549, 168 242.182, 168 246.487 C 168 251.192, 167.533 252.412, 164.033 256.839 C 158.428 263.929, 152.282 268.321, 138.500 275.084 C 125.072 281.673, 106.696 288.021, 93.958 290.471 C 76.118 293.902, 56.640 293.451, 48.857 289.426 C 45.446 287.662, 42.800 282.879, 42.800 278.477 C 42.800 266.994, 59.639 250.749, 80.575 242.033 C 87.753 239.045, 91.454 238.103, 103.301 236.251 C 110.781 235.081, 108.926 233.487, 100.225 233.606 C 75.254 233.951, 41.327 254.256, 31.837 274.535 C 22.217 295.091, 33.780 305.109, 65.500 303.699 C 104.143 301.982, 164.150 272.913, 174.902 250.702 C 177.542 245.250, 177.620 238.135, 175.095 233.186 C 172.790 228.669, 165.110 221.312, 158.985 217.755 C 156.518 216.323, 145.819 211.455, 135.210 206.939 C 124.210 202.256, 114.647 197.539, 112.960 195.962 C 107.493 190.856, 109.555 186.288, 120.366 179.554 C 139.024 167.933, 172.065 159.278, 189.470 161.453 C 197.055 162.401, 201.567 166.142, 200.574 170.661 C 199.857 173.926, 195.937 178.583, 189.556 183.751 C 185.425 187.095, 185.296 188.644, 189.230 187.657 C 192.864 186.745, 199.466 180.551, 203.928 173.869 C 207.088 169.137, 208 166.825, 208 163.541 C 208 158.675, 206.203 156.548, 200.316 154.449 C 194.472 152.364, 174.502 152.725, 163 155.122 M 470.655 158.508 C 465.393 160.317, 460.646 163.662, 452.158 171.541 C 436.181 186.374, 407.262 222.143, 392.645 245.151 C 386.217 255.270, 386.226 255.273, 397.749 246.798 C 422.436 228.644, 467.372 183.617, 474.705 169.688 C 477.168 165.009, 477.712 158.487, 475.703 157.716 C 474.989 157.442, 472.718 157.799, 470.655 158.508 M 342.249 200.509 C 329.763 208.853, 328.442 211.001, 334.553 213.018 C 339.572 214.674, 342.200 213.682, 346.412 208.543 C 350.181 203.943, 354.385 195.656, 353.816 193.949 C 353.641 193.423, 348.436 196.375, 342.249 200.509" stroke="none" fill="#240424" fill-rule="evenodd"/></svg>